<?xml version="1.0" encoding="UTF-8" standalone="no"?><!-- Generator: Gravit.io --><svg xmlns="http://www.w3.org/2000/svg" xmlns:xlink="http://www.w3.org/1999/xlink" style="isolation:isolate" viewBox="0 0 100 100" width="100pt" height="100pt"><defs><clipPath id="_clipPath_PxvryO6JSwcD7xilJD3dU1qNyPKHHfFg"><rect width="100" height="100"/></clipPath></defs><g clip-path="url(#_clipPath_PxvryO6JSwcD7xilJD3dU1qNyPKHHfFg)"><path d=" M 50 0 C 28.003 0 10.106 17.895 10.106 39.894 L 10.106 95.996 C 10.106 96.771 10.513 97.494 11.177 97.892 L 34.38 99.831 C 34.732 100.043 36.276 100.056 36.615 99.866 C 37.31 99.472 37.741 98.736 37.741 97.935 L 35.663 55.409 C 35.663 54.184 34.672 53.193 33.447 53.193 C 26.309 53.109 24.734 48.888 25.066 39.894 L 37.105 39.894 C 39.44 39.894 41.384 41.721 41.529 44.05 L 43.356 71.2 C 43.429 72.369 44.397 73.278 45.568 73.278 L 54.433 73.278 C 55.604 73.278 56.572 72.369 56.645 71.2 L 58.472 44.05 C 58.617 41.721 60.56 39.894 62.896 39.894 L 74.934 39.894 L 74.934 42.111 C 74.934 48.223 72.664 53.193 66.554 53.193 C 65.217 53.301 64.377 54.167 64.337 55.409 L 62.261 97.728 C 62.261 98.528 62.692 99.264 63.389 99.658 C 64.084 100.048 64.939 100.035 65.623 99.624 L 88.823 97.892 C 89.487 97.494 89.894 96.771 89.894 95.996 L 89.894 39.894 C 89.894 17.895 71.997 0 50 0 Z  M 85.462 94.745 L 66.694 93.801 L 68.77 57.469 C 76.278 56.387 79.367 49.911 79.367 42.111 L 79.367 37.678 C 79.367 36.453 78.376 35.462 77.151 35.462 L 62.896 35.462 C 58.225 35.462 54.338 39.111 54.048 43.773 L 52.351 66.768 Q 51.958 69.17 49.888 69.123 Q 47.694 69.072 47.65 66.768 L 45.953 43.773 C 45.663 39.111 41.775 35.462 37.105 35.462 L 22.85 35.462 C 21.625 35.462 20.633 36.453 20.633 37.678 L 20.633 42.111 C 20.633 49.911 23.722 56.387 31.23 57.469 L 33.308 94.009 L 14.539 94.745 L 14.539 39.894 C 14.539 20.341 30.447 4.433 50 4.433 C 69.554 4.433 85.462 20.341 85.462 39.894 L 85.462 94.745 Z " fill="#6c757d"/></g></svg>