<?xml version="1.0" encoding="UTF-8" standalone="no"?><!-- Generator: Gravit.io --><svg xmlns="http://www.w3.org/2000/svg" xmlns:xlink="http://www.w3.org/1999/xlink" style="isolation:isolate" viewBox="0 0 12 20" width="12pt" height="20pt"><defs><clipPath id="_clipPath_GIsZYMsZcjGVhQKFZu2zriWhOreazThr"><rect width="12" height="20"/></clipPath></defs><g clip-path="url(#_clipPath_GIsZYMsZcjGVhQKFZu2zriWhOreazThr)"><path d=" M 12 3 C 12 1.344 10.656 0 9 0 C 7.344 0 6 1.344 6 3 C 6 4.656 7.344 6 9 6 C 10.656 6 12 4.656 12 3 Z  M 11.5 3 C 11.5 1.62 10.38 0.5 9 0.5 C 7.62 0.5 6.5 1.62 6.5 3 C 6.5 4.38 7.62 5.5 9 5.5 C 10.38 5.5 11.5 4.38 11.5 3 Z " fill-rule="evenodd" fill="rgb(108,117,125)"/><path d=" M 12 10 C 12 8.344 10.656 7 9 7 C 7.344 7 6 8.344 6 10 C 6 11.656 7.344 13 9 13 C 10.656 13 12 11.656 12 10 Z  M 11.5 10 C 11.5 8.62 10.38 7.5 9 7.5 C 7.62 7.5 6.5 8.62 6.5 10 C 6.5 11.38 7.62 12.5 9 12.5 C 10.38 12.5 11.5 11.38 11.5 10 Z " fill-rule="evenodd" fill="rgb(108,117,125)"/><path d=" M 12 17 C 12 15.344 10.656 14 9 14 C 7.344 14 6 15.344 6 17 C 6 18.655 7.344 20 9 20 C 10.656 20 12 18.655 12 17 Z  M 4 18 C 3.993 19.029 3.002 19.996 2 20 C 0.995 20.02 -0.02 19.029 0 18 L 0 15 L 2 14 L 4 15 L 4 18 Z " fill-rule="evenodd" fill="rgb(108,117,125)"/></g></svg>