<?xml version="1.0" encoding="UTF-8" standalone="no"?><!-- Generator: Gravit.io --><svg xmlns="http://www.w3.org/2000/svg" xmlns:xlink="http://www.w3.org/1999/xlink" style="isolation:isolate" viewBox="0 0 20 20" width="20pt" height="20pt"><defs><clipPath id="_clipPath_sHwC3lVsLurI8QaJVQXW8OxkR3bdLaNq"><rect width="20" height="20"/></clipPath></defs><g clip-path="url(#_clipPath_sHwC3lVsLurI8QaJVQXW8OxkR3bdLaNq)"><path d=" M 20 3 C 20 1.344 18.656 0 17 0 C 15.344 0 14 1.344 14 3 C 14 4.656 15.344 6 17 6 C 18.656 6 20 4.656 20 3 Z  M 19.5 3 C 19.5 1.62 18.38 0.5 17 0.5 C 15.62 0.5 14.5 1.62 14.5 3 C 14.5 4.38 15.62 5.5 17 5.5 C 18.38 5.5 19.5 4.38 19.5 3 Z " fill-rule="evenodd" fill="rgb(220,53,69)"/><path d=" M 20 10 C 20 8.344 18.656 7 17 7 C 15.344 7 14 8.344 14 10 C 14 11.656 15.344 13 17 13 C 18.656 13 20 11.656 20 10 Z  M 19.5 10 C 19.5 8.62 18.38 7.5 17 7.5 C 15.62 7.5 14.5 8.62 14.5 10 C 14.5 11.38 15.62 12.5 17 12.5 C 18.38 12.5 19.5 11.38 19.5 10 Z " fill-rule="evenodd" fill="rgb(220,53,69)"/><path d=" M 20 17 C 20 15.344 18.656 14 17 14 C 15.344 14 14 15.344 14 17 C 14 18.656 15.344 20 17 20 C 18.656 20 20 18.656 20 17 Z  M 11.196 16 L 5.196 16 L 5.196 18 L 11.196 18 L 11.196 16 Z  M 0 17 L 2.598 15.5 L 5.196 14 L 5.196 17 L 5.196 20 L 2.598 18.5 L 0 17 Z " fill-rule="evenodd" fill="rgb(220,53,69)"/></g></svg>