<?xml version="1.0" encoding="UTF-8" standalone="no"?><!-- Generator: Gravit.io --><svg xmlns="http://www.w3.org/2000/svg" xmlns:xlink="http://www.w3.org/1999/xlink" style="isolation:isolate" viewBox="0 0 12 20" width="12pt" height="20pt"><defs><clipPath id="_clipPath_PumC5UUE5ZGsvukmWOcD2zRWiiTCKZ36"><rect width="12" height="20"/></clipPath></defs><g clip-path="url(#_clipPath_PumC5UUE5ZGsvukmWOcD2zRWiiTCKZ36)"><path d=" M 0 3 C 0 1.344 1.344 0 3 0 C 4.656 0 6 1.344 6 3 C 6 4.656 4.656 6 3 6 C 1.344 6 0 4.656 0 3 Z  M 0.5 3 C 0.5 1.62 1.62 0.5 3 0.5 C 4.38 0.5 5.5 1.62 5.5 3 C 5.5 4.38 4.38 5.5 3 5.5 C 1.62 5.5 0.5 4.38 0.5 3 Z " fill-rule="evenodd" fill="rgb(108,117,125)"/><path d=" M 0 10 C 0 8.344 1.344 7 3 7 C 4.656 7 6 8.344 6 10 C 6 11.656 4.656 13 3 13 C 1.344 13 0 11.656 0 10 Z  M 0.5 10 C 0.5 8.62 1.62 7.5 3 7.5 C 4.38 7.5 5.5 8.62 5.5 10 C 5.5 11.38 4.38 12.5 3 12.5 C 1.62 12.5 0.5 11.38 0.5 10 Z " fill-rule="evenodd" fill="rgb(108,117,125)"/><path d=" M 0 17 C 0 15.344 1.344 14 3 14 C 4.656 14 6 15.344 6 17 C 6 18.656 4.656 20 3 20 C 1.344 20 0 18.656 0 17 Z  M 8 18 C 8.007 19.029 8.998 19.996 10 20 C 11.005 20.021 12.021 19.029 12 18 L 12 15 L 10 14 L 8 15 L 8 18 Z " fill-rule="evenodd" fill="rgb(108,117,125)"/></g></svg>